Coordinates
version=1
nRows=38
nColumns=12
inDegrees=yes

Units are S.I. units (second, meters, Newtons, ...)
Angles are in degrees

endheader
time	SC_y	SC_z	SC_x	AC_y	AC_z	AC_x	GH_y	GH_z	GH_yy	EL_x	PS_y
       0.0              -54.41          8.134          66.29          42.48         -6.735         -5.847         -119.4          -2.47          149.6          74.72          57.44
   0.01789              -54.41          8.132          66.28          42.48         -6.733         -5.846         -119.4         -2.464          149.6          74.73          57.45
   0.03579              -54.41           8.13          66.27          42.48         -6.732         -5.845         -119.4         -2.458          149.6          74.74          57.45
   0.05368              -54.41          8.128          66.27          42.48          -6.73         -5.845         -119.4         -2.452          149.6          74.75          57.46
   0.07157              -54.41          8.126          66.26          42.49         -6.729         -5.844         -119.4         -2.445          149.5          74.76          57.47
   0.08946               -54.4          8.124          66.25          42.49         -6.727         -5.843         -119.4         -2.438          149.5          74.77          57.47
    0.1074               -54.4          8.122          66.24          42.49         -6.725         -5.842         -119.4          -2.43          149.5          74.78          57.48
    0.1253               -54.4          8.119          66.23          42.49         -6.723         -5.841         -119.4         -2.422          149.5          74.79          57.49
    0.1431               -54.4          8.117          66.22          42.49         -6.721          -5.84         -119.4         -2.413          149.4           74.8           57.5
     0.161               -54.4          8.114          66.21           42.5         -6.718         -5.839         -119.4         -2.404          149.4          74.81          57.51
    0.1789               -54.4          8.111           66.2           42.5         -6.716         -5.838         -119.4         -2.394          149.4          74.83          57.52
    0.1968               -54.4          8.108          66.19           42.5         -6.713         -5.837         -119.4         -2.383          149.4          74.84          57.53
    0.2147              -54.39          8.104          66.18           42.5          -6.71         -5.836         -119.4         -2.371          149.3          74.86          57.54
    0.2326              -54.39          8.101          66.17          42.51         -6.707         -5.834         -119.4         -2.358          149.3          74.87          57.56
    0.2505              -54.39          8.097          66.15          42.51         -6.703         -5.833         -119.3         -2.345          149.2          74.89          57.57
    0.2684              -54.39          8.092          66.13          42.51         -6.699         -5.831         -119.3          -2.33          149.2          74.91          57.59
    0.2863              -54.39          8.087          66.12          42.52         -6.695         -5.829         -119.3         -2.314          149.2          74.93           57.6
    0.3042              -54.38          8.082           66.1          42.52         -6.691         -5.827         -119.3         -2.296          149.1          74.96          57.62
    0.3221              -54.38          8.076          66.08          42.53         -6.686         -5.825         -119.3         -2.277          149.0          74.98          57.64
      0.34              -54.38           8.07          66.05          42.53         -6.681         -5.823         -119.3         -2.256          149.0          75.01          57.66
    0.3579              -54.38          8.063          66.03          42.54         -6.675          -5.82         -119.3         -2.232          148.9          75.04          57.69
    0.3758              -54.37          8.056           66.0          42.55         -6.668         -5.817         -119.3         -2.207          148.8          75.08          57.72
    0.3936              -54.37          8.047          65.97          42.55         -6.661         -5.814         -119.3         -2.179          148.8          75.12          57.74
    0.4115              -54.36          8.038          65.94          42.56         -6.653         -5.811         -119.3         -2.148          148.7          75.16          57.78
    0.4294              -54.36          8.028           65.9          42.57         -6.645         -5.807         -119.2         -2.113          148.6           75.2          57.81
    0.4473              -54.35          8.016          65.86          42.58         -6.635         -5.803         -119.2         -2.074          148.4          75.26          57.85
    0.4652              -54.35          8.003          65.81          42.59         -6.624         -5.798         -119.2         -2.031          148.3          75.32           57.9
    0.4831              -54.34          7.989          65.76           42.6         -6.612         -5.792         -119.2         -1.982          148.2          75.38          57.95
     0.501              -54.33          7.973           65.7          42.62         -6.598         -5.786         -119.2         -1.927          148.0          75.46          58.01
    0.5189              -54.32          7.954          65.63          42.63         -6.582         -5.779         -119.1         -1.864          147.8          75.54          58.07
    0.5368              -54.31          7.933          65.55          42.65         -6.564         -5.771         -119.1         -1.793          147.6          75.64          58.15
    0.5547               -54.3          7.909          65.46          42.67         -6.543         -5.762         -119.1         -1.711          147.4          75.75          58.23
    0.5726              -54.29           7.88          65.36          42.69         -6.519         -5.752         -119.0         -1.617          147.1          75.87          58.33
    0.5905              -54.28          7.848          65.24          42.72         -6.491         -5.739         -119.0         -1.507          146.8          76.02          58.45
    0.6084              -54.26           7.81           65.1          42.76         -6.459         -5.725         -118.9         -1.378          146.4           76.2          58.58
    0.6263              -54.24          7.765          64.94          42.79         -6.421         -5.708         -118.9         -1.226          145.9           76.4          58.74
    0.6441              -54.21          7.711          64.74          42.84         -6.375         -5.688         -118.8         -1.046          145.4          76.64          58.93
     0.662              -54.18          7.647          64.51          42.89         -6.321         -5.664         -118.7        -0.8301          144.8          76.93          59.16
